<svg width="52" height="53" viewBox="0 0 52 53" fill="none" xmlns="http://www.w3.org/2000/svg">
<g clip-path="url(#clip0_20_433)">
<path d="M0.000538268 30.2429L0.130094 10.9713C0.153547 7.48275 2.62115 4.49422 6.02947 3.82652L24.858 0.137933C29.3826 -0.748463 33.5813 2.75057 33.5503 7.38169L33.4206 26.6532C33.3972 30.1417 30.9296 33.1303 27.5214 33.7981L8.69275 37.4866C4.1681 38.373 -0.0305948 34.874 0.000538268 30.2429Z" fill="#BFFF6D" fill-opacity="0.2"/>
<path d="M9.22515 37.9279L9.35469 18.6563C9.37816 15.1677 11.8458 12.1792 15.2541 11.5115L34.0827 7.82293C38.6073 6.93654 42.806 10.4356 42.7748 15.0667L42.6453 34.3383C42.6219 37.8269 40.1542 40.8154 36.7459 41.483L17.9173 45.1717C13.3927 46.0581 9.19401 42.559 9.22515 37.9279Z" fill="#BFFF6D" fill-opacity="0.5"/>
<path d="M18.4501 45.62L18.5798 26.3484C18.6032 22.8597 21.0708 19.8713 24.479 19.2035L43.3076 15.5149C47.8322 14.6285 52.0311 18.1276 51.9999 22.7587L51.8704 42.0303C51.8468 45.5188 49.3792 48.5073 45.971 49.1751L27.1424 52.8636C22.6178 53.75 18.4191 50.251 18.4501 45.62Z" fill="#BFFF6D" fill-opacity="0.8"/>
</g>
<defs>
<clipPath id="clip0_20_433">
<rect width="52" height="53" fill="white"/>
</clipPath>
</defs>
</svg>
